<svg xmlns="http://www.w3.org/2000/svg" width="18" height="20" viewBox="0 0 18 20" fill="none">
<path d="M16.6069 6.81898C16.4912 6.90898 14.4469 8.06298 14.4469 10.629C14.4469 13.597 17.0481 14.647 17.126 14.673C17.114 14.737 16.7128 16.111 15.7545 17.511C14.9001 18.743 14.0077 19.973 12.6503 19.973C11.2928 19.973 10.9434 19.183 9.3763 19.183C7.84911 19.183 7.30612 19.999 6.06441 19.999C4.8227 19.999 3.9563 18.859 2.96014 17.459C1.80627 15.815 0.873993 13.261 0.873993 10.837C0.873993 6.94898 3.39733 4.88698 5.88075 4.88698C7.20031 4.88698 8.30028 5.75498 9.12875 5.75498C9.9173 5.75498 11.147 4.83498 12.6483 4.83498C13.2172 4.83498 15.2614 4.88698 16.6069 6.81898ZM11.9356 3.18898C12.5564 2.45098 12.9956 1.42698 12.9956 0.402977C12.9956 0.260977 12.9836 0.116977 12.9577 0.000976562C11.9475 0.0389766 10.7458 0.674977 10.0211 1.51698C9.45216 2.16498 8.92114 3.18898 8.92114 4.22698C8.92114 4.38298 8.94709 4.53898 8.95907 4.58898C9.02295 4.60098 9.12676 4.61498 9.23057 4.61498C10.1369 4.61498 11.2768 4.00698 11.9356 3.18898Z" fill="#131313"/>
</svg>