<svg xmlns="http://www.w3.org/2000/svg" width="17" height="16" viewBox="0 0 17 16" fill="none">
<g clip-path="url(#clip0_2_694)">
<path d="M4.0108 6.50969C4.63253 4.62575 6.40297 3.27273 8.5 3.27273C9.62727 3.27273 10.6455 3.67273 11.4455 4.32727L13.7727 2C12.3545 0.763636 10.5364 0 8.5 0C5.34671 0 2.63183 1.79887 1.32666 4.43335L4.0108 6.50969Z" fill="#131313"/>
<path d="M11.1939 12.0082C10.4673 12.4773 9.5441 12.7271 8.50004 12.7271C6.41103 12.7271 4.64612 11.3844 4.01803 9.51172L1.32501 11.5565C2.62856 14.1956 5.34337 15.9998 8.50004 15.9998C10.4553 15.9998 12.3236 15.3047 13.7228 13.9995L11.1939 12.0082Z" fill="#131313"/>
<path d="M13.7228 13.9997C15.1861 12.6347 16.1364 10.6024 16.1364 7.99996C16.1364 7.52723 16.0636 7.01814 15.9545 6.54541H8.5V9.63632H12.7909C12.5792 10.6757 12.0109 11.4808 11.1938 12.0083L13.7228 13.9997Z" fill="#131313"/>
<path d="M4.01799 9.51216C3.85888 9.03779 3.77273 8.52942 3.77273 8.00024C3.77273 7.4791 3.85629 6.97812 4.0108 6.50993L1.32666 4.43359C0.791058 5.5072 0.5 6.71717 0.5 8.00024C0.5 9.27994 0.796521 10.487 1.32498 11.5569L4.01799 9.51216Z" fill="#131313"/>
</g>
<defs>
<clipPath id="clip0_2_694">
<rect width="16" height="16" fill="white" transform="translate(0.5)"/>
</clipPath>
</defs>
</svg>