<svg xmlns="http://www.w3.org/2000/svg" width="20" height="20" viewBox="0 0 20 20" fill="none">
<path d="M14.95 5.05H14.959M5.5 1H14.5C16.9853 1 19 3.01472 19 5.5V14.5C19 16.9853 16.9853 19 14.5 19H5.5C3.01472 19 1 16.9853 1 14.5V5.5C1 3.01472 3.01472 1 5.5 1ZM13.6 9.433C13.7111 10.182 13.5831 10.947 13.2344 11.6191C12.8856 12.2912 12.3338 12.8363 11.6575 13.1767C10.9811 13.5171 10.2146 13.6356 9.46701 13.5153C8.71941 13.395 8.02878 13.0421 7.49335 12.5066C6.95793 11.9712 6.60496 11.2806 6.48466 10.533C6.36436 9.7854 6.48286 9.0189 6.82329 8.34254C7.16373 7.66617 7.70877 7.11437 8.38089 6.76562C9.05301 6.41687 9.81798 6.28893 10.567 6.4C11.331 6.5133 12.0384 6.86932 12.5845 7.41548C13.1307 7.96163 13.4867 8.66897 13.6 9.433Z" stroke="#95762B" stroke-width="1.5" stroke-linecap="round" stroke-linejoin="round"/>
</svg>