<svg xmlns="http://www.w3.org/2000/svg" width="20" height="18" viewBox="0 0 20 18" fill="none">
<path d="M13.2 6.20003C14.473 6.20003 15.6939 6.70574 16.5941 7.60591C17.4943 8.50609 18 9.72699 18 11V16.6H14.8V11C14.8 10.5757 14.6314 10.1687 14.3314 9.86866C14.0313 9.5686 13.6243 9.40003 13.2 9.40003C12.7757 9.40003 12.3687 9.5686 12.0686 9.86866C11.7686 10.1687 11.6 10.5757 11.6 11V16.6H8.4V11C8.4 9.72699 8.90571 8.50609 9.80589 7.60591C10.7061 6.70574 11.927 6.20003 13.2 6.20003Z" stroke="#95762B" stroke-width="1.5" stroke-linecap="round" stroke-linejoin="round"/>
<path d="M5.2 7.00002H2V16.6H5.2V7.00002Z" stroke="#95762B" stroke-width="1.5" stroke-linecap="round" stroke-linejoin="round"/>
<path d="M3.6 4.60002C4.48366 4.60002 5.2 3.88368 5.2 3.00002C5.2 2.11637 4.48366 1.40002 3.6 1.40002C2.71634 1.40002 2 2.11637 2 3.00002C2 3.88368 2.71634 4.60002 3.6 4.60002Z" stroke="#95762B" stroke-width="1.5" stroke-linecap="round" stroke-linejoin="round"/>
</svg>