<svg xmlns="http://www.w3.org/2000/svg" width="22" height="18" viewBox="0 0 22 18" fill="none">
<path d="M21 0.852922C20.1294 1.46699 19.1656 1.93666 18.1455 2.24383C17.5979 1.6143 16.8703 1.1681 16.0609 0.965582C15.2516 0.763068 14.3995 0.814009 13.6201 1.11152C12.8406 1.40902 12.1713 1.93874 11.7027 2.62903C11.2341 3.31931 10.9888 4.13686 11 4.9711V5.88019C9.40239 5.92162 7.81934 5.5673 6.39183 4.84878C4.96431 4.13027 3.73665 3.06986 2.81818 1.76201C2.81818 1.76201 -0.818182 9.94383 7.36364 13.5802C5.49139 14.8511 3.26105 15.4883 1 15.3984C9.18182 19.9438 19.1818 15.3984 19.1818 4.94383C19.181 4.69061 19.1566 4.43801 19.1091 4.18929C20.0369 3.27428 20.6917 2.11902 21 0.852922Z" stroke="#95762B" stroke-width="1.5" stroke-linecap="round" stroke-linejoin="round"/>
</svg>