<svg xmlns="http://www.w3.org/2000/svg" width="22" height="16" viewBox="0 0 22 16" fill="none">
<path d="M20.5813 3.17297C20.4733 2.74155 20.2534 2.34626 19.9438 2.02703C19.6341 1.70781 19.2457 1.47595 18.8178 1.35488C17.2542 0.973084 11 0.973083 11 0.973083C11 0.973083 4.74578 0.973084 3.18222 1.39124C2.75429 1.51231 2.36588 1.74417 2.05623 2.0634C1.74659 2.38262 1.52666 2.77791 1.41868 3.20933C1.13253 4.79612 0.992553 6.40581 1.00052 8.01817C0.99032 9.64267 1.1303 11.2646 1.41868 12.8634C1.53773 13.2814 1.76258 13.6616 2.0715 13.9674C2.38043 14.2731 2.76299 14.494 3.18222 14.6087C4.74578 15.0269 11 15.0269 11 15.0269C11 15.0269 17.2542 15.0269 18.8178 14.6087C19.2457 14.4877 19.6341 14.2558 19.9438 13.9366C20.2534 13.6174 20.4733 13.2221 20.5813 12.7907C20.8653 11.2158 21.0052 9.61839 20.9995 8.01817C21.0097 6.39367 20.8697 4.7717 20.5813 3.17297Z" stroke="#95762B" stroke-width="1.5" stroke-linecap="round" stroke-linejoin="round"/>
<path d="M8.95465 10.9907L14.1817 8.01817L8.95465 5.0456V10.9907Z" stroke="#95762B" stroke-width="1.5" stroke-linecap="round" stroke-linejoin="round"/>
</svg>