              <svg
                xmlns="http://www.w3.org/2000/svg"
                width="16"
                height="16"
                viewBox="0 0 16 16"
                fill="none"
              >
                <path
                  d="M10.2666 6.58667L7.20657 3.52667C7.08166 3.4025 6.91269 3.33281 6.73657 3.33281C6.56044 3.33281 6.39147 3.4025 6.26657 3.52667C6.20408 3.58865 6.15448 3.66238 6.12064 3.74362C6.08679 3.82486 6.06937 3.912 6.06937 4C6.06937 4.08801 6.08679 4.17515 6.12064 4.25639C6.15448 4.33763 6.20408 4.41136 6.26657 4.47334L9.33323 7.52667C9.39572 7.58865 9.44531 7.66238 9.47916 7.74362C9.51301 7.82486 9.53043 7.912 9.53043 8.00001C9.53043 8.08801 9.51301 8.17515 9.47916 8.25639C9.44531 8.33763 9.39572 8.41136 9.33323 8.47334L6.26657 11.5267C6.14103 11.6513 6.07015 11.8207 6.06953 11.9976C6.0689 12.1746 6.13858 12.3445 6.26323 12.47C6.38788 12.5955 6.5573 12.6664 6.73421 12.667C6.91112 12.6677 7.08103 12.598 7.20657 12.4733L10.2666 9.41334C10.6411 9.03834 10.8515 8.53001 10.8515 8.00001C10.8515 7.47 10.6411 6.96167 10.2666 6.58667Z"
                  fill="#131313"
                />
              </svg>