<svg xmlns="http://www.w3.org/2000/svg" width="24" height="24" viewBox="0 0 24 24" fill="none">
<g clip-path="url(#clip0_1_315)">
<path d="M22.5549 13.662L20.6549 6.82595C20.098 4.82328 18.8877 3.06424 17.2163 1.82842C15.5449 0.592603 13.5083 -0.0490638 11.4304 0.00541635C9.35244 0.0598965 7.35233 0.807397 5.74798 2.1291C4.14364 3.4508 3.02713 5.27085 2.57592 7.29995L1.10492 13.915C0.942436 14.6459 0.946193 15.404 1.11591 16.1333C1.28563 16.8626 1.61699 17.5444 2.0855 18.1285C2.55402 18.7126 3.14774 19.184 3.82283 19.5079C4.49792 19.8318 5.23714 20 5.98592 20H7.09992C7.32944 21.1302 7.94265 22.1464 8.83566 22.8763C9.72867 23.6062 10.8466 24.005 11.9999 24.005C13.1533 24.005 14.2712 23.6062 15.1642 22.8763C16.0572 22.1464 16.6704 21.1302 16.8999 20H17.7379C18.5087 20 19.2691 19.8218 19.9597 19.4794C20.6502 19.1369 21.2523 18.6395 21.7187 18.0258C22.1852 17.4122 22.5035 16.699 22.6487 15.942C22.794 15.185 22.7622 14.4046 22.5559 13.662H22.5549ZM11.9999 22C11.3817 21.9974 10.7793 21.8039 10.2752 21.4459C9.77115 21.0879 9.39 20.5829 9.18392 20H14.8159C14.6098 20.5829 14.2287 21.0879 13.7246 21.4459C13.2206 21.8039 12.6182 21.9974 11.9999 22ZM20.1259 16.815C19.8473 17.1846 19.4862 17.4842 19.0715 17.6899C18.6568 17.8956 18.1998 18.0018 17.7369 18H5.98592C5.53671 17.9999 5.09324 17.8989 4.68826 17.7045C4.28328 17.5101 3.92713 17.2273 3.64608 16.8768C3.36504 16.5264 3.16628 16.1173 3.06448 15.6798C2.96268 15.2423 2.96044 14.7875 3.05792 14.349L4.52792 7.73295C4.88227 6.13916 5.75923 4.70955 7.01938 3.6714C8.27953 2.63324 9.85054 2.04612 11.4827 2.00336C13.1148 1.96061 14.7144 2.46467 16.0272 3.43542C17.34 4.40617 18.2906 5.7879 18.7279 7.36095L20.6279 14.1969C20.7535 14.6423 20.7735 15.1108 20.6863 15.5653C20.5992 16.0197 20.4073 16.4476 20.1259 16.815Z" fill="#131313"/>
</g>
<defs>
<clipPath id="clip0_1_315">
<rect width="24" height="24" fill="white"/>
</clipPath>
</defs>
</svg>