<svg xmlns="http://www.w3.org/2000/svg" width="16" height="16" viewBox="0 0 16 16" fill="none">
<g clip-path="url(#clip0_1_340)">
<path d="M9.32467 4.072C9.29867 4.07933 4.506 5.98133 4.506 5.98133C4.14966 6.12031 3.84548 6.36689 3.63578 6.68676C3.42607 7.00664 3.32127 7.38392 3.33593 7.76613C3.3506 8.14833 3.48401 8.51647 3.71761 8.81933C3.95121 9.1222 4.27339 9.34474 4.63934 9.456L6.20334 9.84733L6.71867 11.53C6.85578 11.8663 7.09007 12.1541 7.39158 12.3566C7.6931 12.5591 8.04815 12.667 8.41134 12.6667H8.44067C8.80937 12.6619 9.16799 12.5456 9.4693 12.3331C9.77061 12.1205 10.0005 11.8217 10.1287 11.476C10.1287 11.476 11.924 6.69933 11.9287 6.676C12.0232 6.31558 12.0217 5.93667 11.9243 5.57701C11.8269 5.21735 11.637 4.88948 11.3735 4.62603C11.1099 4.36258 10.782 4.17275 10.4223 4.07543C10.0626 3.97811 9.68374 3.9767 9.32334 4.07133L9.32467 4.072ZM10.6467 6.31133L8.88134 11.0067C8.84735 11.1019 8.78482 11.1844 8.70227 11.2429C8.61972 11.3013 8.52115 11.3329 8.42 11.3333C8.35334 11.3253 8.07 11.316 7.97 11.0813L7.36467 9.09733C7.33122 8.98729 7.26987 8.88777 7.18657 8.80845C7.10328 8.72913 7.00089 8.67271 6.88934 8.64467L5.01067 8.178C4.91179 8.14435 4.82569 8.08105 4.76409 7.99671C4.70248 7.91236 4.66838 7.81108 4.66641 7.70665C4.66444 7.60222 4.69471 7.49973 4.75309 7.41312C4.81147 7.32652 4.89513 7.26001 4.99267 7.22267L9.69934 5.356C9.82896 5.32504 9.96442 5.32844 10.0923 5.36585C10.2202 5.40327 10.3362 5.4734 10.4287 5.56933C10.5253 5.66414 10.596 5.78209 10.6342 5.91197C10.6724 6.04185 10.6767 6.17933 10.6467 6.31133ZM8 0C6.41775 0 4.87104 0.469192 3.55544 1.34824C2.23985 2.22729 1.21447 3.47672 0.608967 4.93853C0.00346629 6.40034 -0.15496 8.00887 0.153721 9.56072C0.462403 11.1126 1.22433 12.538 2.34315 13.6569C3.46197 14.7757 4.88743 15.5376 6.43928 15.8463C7.99113 16.155 9.59966 15.9965 11.0615 15.391C12.5233 14.7855 13.7727 13.7602 14.6518 12.4446C15.5308 11.129 16 9.58225 16 8C15.9977 5.87897 15.1541 3.84547 13.6543 2.34568C12.1545 0.845886 10.121 0.00229405 8 0V0ZM8 14.6667C6.68146 14.6667 5.39253 14.2757 4.2962 13.5431C3.19987 12.8106 2.34539 11.7694 1.84081 10.5512C1.33622 9.33305 1.2042 7.99261 1.46144 6.6994C1.71867 5.40619 2.35361 4.21831 3.28596 3.28596C4.21831 2.35361 5.4062 1.71867 6.6994 1.46143C7.99261 1.2042 9.33305 1.33622 10.5512 1.8408C11.7694 2.34539 12.8106 3.19987 13.5431 4.2962C14.2757 5.39253 14.6667 6.68146 14.6667 8C14.6647 9.76752 13.9617 11.4621 12.7119 12.7119C11.4621 13.9617 9.76752 14.6647 8 14.6667Z" fill="#131313"/>
</g>
<defs>
<clipPath id="clip0_1_340">
<rect width="16" height="16" fill="white"/>
</clipPath>
</defs>
</svg>