<svg xmlns="http://www.w3.org/2000/svg" width="16" height="17" viewBox="0 0 16 17" fill="none">
<g clip-path="url(#clip0_1_690)">
<path d="M15.3332 7.83374H13.9998V6.50041C13.9998 6.32359 13.9296 6.15403 13.8046 6.029C13.6795 5.90398 13.51 5.83374 13.3332 5.83374C13.1564 5.83374 12.9868 5.90398 12.8618 6.029C12.7367 6.15403 12.6665 6.32359 12.6665 6.50041V7.83374H11.3332C11.1564 7.83374 10.9868 7.90397 10.8618 8.029C10.7367 8.15402 10.6665 8.32359 10.6665 8.5004C10.6665 8.67721 10.7367 8.84678 10.8618 8.97181C10.9868 9.09683 11.1564 9.16707 11.3332 9.16707H12.6665V10.5004C12.6665 10.6772 12.7367 10.8468 12.8618 10.9718C12.9868 11.0968 13.1564 11.1671 13.3332 11.1671C13.51 11.1671 13.6795 11.0968 13.8046 10.9718C13.9296 10.8468 13.9998 10.6772 13.9998 10.5004V9.16707H15.3332C15.51 9.16707 15.6795 9.09683 15.8046 8.97181C15.9296 8.84678 15.9998 8.67721 15.9998 8.5004C15.9998 8.32359 15.9296 8.15402 15.8046 8.029C15.6795 7.90397 15.51 7.83374 15.3332 7.83374Z" fill="#000212"/>
<path d="M6 8.49996C6.79113 8.49996 7.56449 8.26536 8.22228 7.82584C8.88008 7.38631 9.39277 6.7616 9.69552 6.03069C9.99827 5.29979 10.0775 4.49552 9.92314 3.7196C9.7688 2.94367 9.38784 2.23094 8.82843 1.67153C8.26902 1.11212 7.55629 0.731158 6.78036 0.576817C6.00444 0.422476 5.20017 0.501689 4.46927 0.80444C3.73836 1.10719 3.11365 1.61988 2.67412 2.27768C2.2346 2.93547 2 3.70883 2 4.49996C2.00106 5.5605 2.42283 6.5773 3.17274 7.32722C3.92266 8.07713 4.93946 8.4989 6 8.49996ZM6 1.83329C6.52742 1.83329 7.04299 1.98969 7.48152 2.28271C7.92005 2.57572 8.26185 2.9922 8.46368 3.47947C8.66551 3.96674 8.71832 4.50292 8.61543 5.0202C8.51253 5.53748 8.25856 6.01264 7.88562 6.38558C7.51268 6.75852 7.03752 7.01249 6.52024 7.11539C6.00296 7.21828 5.46678 7.16547 4.97951 6.96364C4.49224 6.7618 4.07576 6.42001 3.78275 5.98148C3.48973 5.54295 3.33333 5.02738 3.33333 4.49996C3.33333 3.79271 3.61428 3.11444 4.11438 2.61434C4.61448 2.11424 5.29276 1.83329 6 1.83329Z" fill="#000212"/>
<path d="M6 9.83374C4.40924 9.8355 2.88414 10.4682 1.75931 11.593C0.634472 12.7179 0.00176457 14.243 0 15.8337C0 16.0106 0.0702379 16.1801 0.195262 16.3051C0.320286 16.4302 0.489856 16.5004 0.666667 16.5004C0.843478 16.5004 1.01305 16.4302 1.13807 16.3051C1.2631 16.1801 1.33333 16.0106 1.33333 15.8337C1.33333 14.5961 1.825 13.4091 2.70017 12.5339C3.57534 11.6587 4.76232 11.1671 6 11.1671C7.23768 11.1671 8.42466 11.6587 9.29983 12.5339C10.175 13.4091 10.6667 14.5961 10.6667 15.8337C10.6667 16.0106 10.7369 16.1801 10.8619 16.3051C10.987 16.4302 11.1565 16.5004 11.3333 16.5004C11.5101 16.5004 11.6797 16.4302 11.8047 16.3051C11.9298 16.1801 12 16.0106 12 15.8337C11.9982 14.243 11.3655 12.7179 10.2407 11.593C9.11586 10.4682 7.59076 9.8355 6 9.83374Z" fill="#000212"/>
</g>
<defs>
<clipPath id="clip0_1_690">
<rect width="16" height="16" fill="white" transform="translate(0 0.5)"/>
</clipPath>
</defs>
</svg>