<svg xmlns="http://www.w3.org/2000/svg" width="16" height="16" viewBox="0 0 16 16" fill="none">
<g clip-path="url(#clip0_1_970)">
<path d="M12.667 15.9999H11.3337C11.1568 15.9999 10.9873 15.9297 10.8623 15.8046C10.7372 15.6796 10.667 15.51 10.667 15.3332C10.667 15.1564 10.7372 14.9869 10.8623 14.8618C10.9873 14.7368 11.1568 14.6666 11.3337 14.6666H12.667C13.1974 14.6666 13.7061 14.4559 14.0812 14.0808C14.4563 13.7057 14.667 13.197 14.667 12.6666V11.3332C14.667 11.1564 14.7372 10.9869 14.8622 10.8618C14.9873 10.7368 15.1568 10.6666 15.3337 10.6666C15.5105 10.6666 15.68 10.7368 15.8051 10.8618C15.9301 10.9869 16.0003 11.1564 16.0003 11.3332V12.6666C15.9993 13.5503 15.6477 14.3975 15.0228 15.0224C14.3979 15.6473 13.5507 15.9988 12.667 15.9999Z" fill="#131313"/>
<path d="M0.666667 5.33333C0.489856 5.33333 0.320286 5.2631 0.195262 5.13807C0.0702379 5.01305 0 4.84348 0 4.66667V3.33333C0.00105857 2.4496 0.352588 1.60237 0.97748 0.97748C1.60237 0.352588 2.4496 0.00105857 3.33333 0L4.66667 0C4.84348 0 5.01305 0.0702379 5.13807 0.195262C5.2631 0.320286 5.33333 0.489856 5.33333 0.666667C5.33333 0.843478 5.2631 1.01305 5.13807 1.13807C5.01305 1.2631 4.84348 1.33333 4.66667 1.33333H3.33333C2.8029 1.33333 2.29419 1.54405 1.91912 1.91912C1.54405 2.29419 1.33333 2.8029 1.33333 3.33333V4.66667C1.33333 4.84348 1.2631 5.01305 1.13807 5.13807C1.01305 5.2631 0.843478 5.33333 0.666667 5.33333Z" fill="#131313"/>
<path d="M4.66667 15.9999H3.33333C2.4496 15.9988 1.60237 15.6473 0.97748 15.0224C0.352588 14.3975 0.00105857 13.5503 0 12.6666L0 11.3332C0 11.1564 0.0702379 10.9869 0.195262 10.8618C0.320286 10.7368 0.489856 10.6666 0.666667 10.6666C0.843478 10.6666 1.01305 10.7368 1.13807 10.8618C1.2631 10.9869 1.33333 11.1564 1.33333 11.3332V12.6666C1.33333 13.197 1.54405 13.7057 1.91912 14.0808C2.29419 14.4559 2.8029 14.6666 3.33333 14.6666H4.66667C4.84348 14.6666 5.01305 14.7368 5.13807 14.8618C5.2631 14.9869 5.33333 15.1564 5.33333 15.3332C5.33333 15.51 5.2631 15.6796 5.13807 15.8046C5.01305 15.9297 4.84348 15.9999 4.66667 15.9999Z" fill="#131313"/>
<path d="M15.3337 5.33333C15.1568 5.33333 14.9873 5.26309 14.8622 5.13806C14.7372 5.01304 14.667 4.84347 14.667 4.66666V3.33333C14.667 2.80289 14.4563 2.29418 14.0812 1.91911C13.7061 1.54404 13.1974 1.33333 12.667 1.33333H11.3337C11.1568 1.33333 10.9873 1.26309 10.8623 1.13806C10.7372 1.01304 10.667 0.84347 10.667 0.666659C10.667 0.489848 10.7372 0.320279 10.8623 0.195255C10.9873 0.0702303 11.1568 -7.62939e-06 11.3337 -7.62939e-06L12.667 -7.62939e-06C13.5507 0.00105094 14.3979 0.35258 15.0228 0.977472C15.6477 1.60236 15.9993 2.4496 16.0003 3.33333V4.66666C16.0003 4.84347 15.9301 5.01304 15.8051 5.13806C15.68 5.26309 15.5105 5.33333 15.3337 5.33333Z" fill="#131313"/>
</g>
<defs>
<clipPath id="clip0_1_970">
<rect width="16" height="16" fill="white"/>
</clipPath>
</defs>
</svg>