 <svg
                  xmlns="http://www.w3.org/2000/svg"
                  width="16"
                  height="16"
                  viewBox="0 0 16 16"
                  fill="none"
                >
                  <path
                    d="M8 9.99454C6.89544 9.99454 6 10.89 6 11.9945V15.9945H10V11.9945C10 10.89 9.10456 9.99454 8 9.99454Z"
                    fill="#131313"
                  />
                  <path
                    d="M11.3333 11.9948V15.9948H14C15.1046 15.9948 16 15.0994 16 13.9948V7.91416C16.0002 7.56781 15.8656 7.235 15.6247 6.98616L9.95934 0.86147C8.95972 -0.220093 7.27259 -0.286499 6.19103 0.713126C6.13966 0.760626 6.09016 0.810095 6.04269 0.86147L0.387344 6.98416C0.139156 7.23403 -9.37027e-05 7.57197 4.73072e-08 7.92416V13.9948C4.73072e-08 15.0994 0.895437 15.9948 2 15.9948H4.66666V11.9948C4.67912 10.1769 6.14684 8.69244 7.91894 8.64969C9.75031 8.6055 11.3194 10.1153 11.3333 11.9948Z"
                    fill="#131313"
                  />
                  <path
                    d="M8 9.99454C6.89544 9.99454 6 10.89 6 11.9945V15.9945H10V11.9945C10 10.89 9.10456 9.99454 8 9.99454Z"
                    fill="#131313"
                  />
                </svg>