<svg xmlns="http://www.w3.org/2000/svg" width="16" height="16" viewBox="0 0 16 16" fill="none">
<path d="M8.00005 2.66667C8.73643 2.66667 9.33338 2.06971 9.33338 1.33333C9.33338 0.596954 8.73643 0 8.00005 0C7.26367 0 6.66672 0.596954 6.66672 1.33333C6.66672 2.06971 7.26367 2.66667 8.00005 2.66667Z" fill="#6D6D6D"/>
<path d="M8.00005 9.33353C8.73643 9.33353 9.33338 8.73658 9.33338 8.0002C9.33338 7.26382 8.73643 6.66687 8.00005 6.66687C7.26367 6.66687 6.66672 7.26382 6.66672 8.0002C6.66672 8.73658 7.26367 9.33353 8.00005 9.33353Z" fill="#6D6D6D"/>
<path d="M8.00005 15.9998C8.73643 15.9998 9.33338 15.4029 9.33338 14.6665C9.33338 13.9301 8.73643 13.3331 8.00005 13.3331C7.26367 13.3331 6.66672 13.9301 6.66672 14.6665C6.66672 15.4029 7.26367 15.9998 8.00005 15.9998Z" fill="#6D6D6D"/>
</svg>