<svg xmlns="http://www.w3.org/2000/svg" width="24" height="18" viewBox="0 0 24 18" fill="none">
<path d="M22.9565 7.95717H1.04346C0.467168 7.95717 0 8.42434 0 9.00063C0 9.57692 0.467168 10.0441 1.04346 10.0441H22.9565C23.5328 10.0441 24 9.57692 24 9.00063C24 8.42434 23.5328 7.95717 22.9565 7.95717Z" fill="#131313"/>
<path d="M1.04346 2.73936H22.9565C23.5328 2.73936 24 2.27219 24 1.6959C24 1.1196 23.5328 0.652435 22.9565 0.652435H1.04346C0.467168 0.652435 0 1.1196 0 1.6959C0 2.27219 0.467168 2.73936 1.04346 2.73936Z" fill="#131313"/>
<path d="M22.9565 15.261H1.04346C0.467168 15.261 0 15.7282 0 16.3045C0 16.8808 0.467168 17.348 1.04346 17.348H22.9565C23.5328 17.348 24 16.8808 24 16.3045C24 15.7282 23.5328 15.261 22.9565 15.261Z" fill="#131313"/>
</svg>