<svg xmlns="http://www.w3.org/2000/svg" width="16" height="16" viewBox="0 0 16 16" fill="none">
<g clip-path="url(#clip0_1_347)">
<path d="M12.6667 1.33333H3.33333C1.49333 1.33333 0 2.82667 0 4.66667V11.3333C0 13.1733 1.49333 14.6667 3.33333 14.6667H8C8.36667 14.6667 8.66667 14.3667 8.66667 14C8.66667 13.6333 8.36667 13.3333 8 13.3333H3.33333C2.23333 13.3333 1.33333 12.4333 1.33333 11.3333V6H14.6667V9.33333C14.6667 9.7 14.9667 10 15.3333 10C15.7 10 16 9.7 16 9.33333V4.66667C16 2.82667 14.5067 1.33333 12.6667 1.33333ZM1.33333 4.66667C1.33333 3.56667 2.23333 2.66667 3.33333 2.66667H12.6667C13.7667 2.66667 14.6667 3.56667 14.6667 4.66667H1.33333ZM10.94 8.11333C10.4333 7.60667 9.76667 7.33333 9.05333 7.33333H7.99333C7.62667 7.33333 7.32667 7.63333 7.32667 8V9.06C7.32667 9.77333 7.60667 10.44 8.10667 10.9467L12.58 15.42C12.96 15.8 13.46 16.0067 13.9933 16.0067C14.5267 16.0067 15.0267 15.8 15.4067 15.42C15.7867 15.04 15.9933 14.54 15.9933 14.0067C15.9933 13.4733 15.7867 12.9733 15.4067 12.5933L10.9333 8.12L10.94 8.11333ZM14.4667 14.4733C14.2133 14.7267 13.7733 14.7267 13.5267 14.4733L9.05333 10C8.8 9.74667 8.66 9.41333 8.66 9.06V8.66667H9.05333C9.40667 8.66667 9.74667 8.80667 9.99333 9.06L14.4667 13.5333C14.5933 13.66 14.66 13.8267 14.66 14.0067C14.66 14.1867 14.5933 14.3533 14.4667 14.48V14.4733Z" fill="#131313"/>
</g>
<defs>
<clipPath id="clip0_1_347">
<rect width="16" height="16" fill="white"/>
</clipPath>
</defs>
</svg>