<svg xmlns="http://www.w3.org/2000/svg" width="16" height="17" viewBox="0 0 16 17" fill="none">
<g clip-path="url(#clip0_1_675)">
<path d="M3.33333 3.16667C3.33333 2.79867 3.632 2.5 4 2.5H5.33333V1.16667C5.33333 0.798667 5.632 0.5 6 0.5C6.368 0.5 6.66667 0.798667 6.66667 1.16667V2.5H8C8.368 2.5 8.66667 2.79867 8.66667 3.16667C8.66667 3.53467 8.368 3.83333 8 3.83333H6.66667V5.16667C6.66667 5.53467 6.368 5.83333 6 5.83333C5.632 5.83333 5.33333 5.53467 5.33333 5.16667V3.83333H4C3.632 3.83333 3.33333 3.53467 3.33333 3.16667ZM15.4907 9.17667L10.954 14.268C9.69 15.6867 7.876 16.5 5.97667 16.5H2.66667C1.196 16.5 0 15.304 0 13.8333V10.5C0 9.02933 1.196 7.83333 2.66667 7.83333H8.572C9.33133 7.83333 9.99733 8.23933 10.3647 8.84533L12.5087 6.48933C12.87 6.09267 13.3633 5.86 13.8993 5.83533C14.4347 5.80533 14.948 5.99533 15.3447 6.35667C16.154 7.09467 16.2193 8.35933 15.4907 9.176V9.17667ZM14.4467 7.34267C14.314 7.222 14.1407 7.16467 13.9613 7.168C13.7813 7.17667 13.616 7.254 13.4947 7.38733L10.544 10.63C10.2873 11.344 9.65133 11.8907 8.868 12.0027L5.42733 12.494C5.064 12.5467 4.72533 12.2933 4.67333 11.9287C4.62133 11.564 4.87467 11.2267 5.23867 11.1747L8.67933 10.6833C9.052 10.63 9.33333 10.306 9.33333 9.92933C9.33333 9.50933 8.992 9.168 8.572 9.168H2.66667C1.93133 9.168 1.33333 9.766 1.33333 10.5013V13.8347C1.33333 14.57 1.93133 15.168 2.66667 15.168H5.97667C7.496 15.168 8.948 14.5173 9.95867 13.3827L14.4953 8.29067C14.74 8.016 14.718 7.59133 14.4467 7.34333V7.34267Z" fill="#131313"/>
</g>
<defs>
<clipPath id="clip0_1_675">
<rect width="16" height="16" fill="white" transform="translate(0 0.5)"/>
</clipPath>
</defs>
</svg>